Coordinates
version=1
nRows=30
nColumns=33
inDegrees=yes

Units are S.I. units (second, meters, Newtons, ...)
Angles are in degrees.

endheader
time	ground_thorax_rot_x	ground_thorax_rot_y	ground_thorax_rot_z	ground_thorax_tx	ground_thorax_ty	ground_thorax_tz	clav_prot_r	clav_elev_r	scapula_abduction_r	scapula_elevation_r	scapula_upward_rot_r	scapula_winging_r	shoulder_elv_r	plane_of_elev_r	axial_rot_r	elbow_flexion_r	pro_sup_r	wrist_flex_r	wrist_dev_r	clav_prot_l	clav_elev_l	scapula_abduction_l	scapula_elevation_l	scapula_upward_rot_l	scapula_winging_l	shoulder_elv_l	plane_of_elev_l	axial_rot_l	elbow_flexion_l	pro_sup_l	wrist_flex_l	wrist_dev_l	
2.2700	1.364957	7.429467	0.997312	-0.190699	1.001230	0.013052	-18.572395	-7.800842	-24.467238	-3.811394	8.283204	2.011415	64.310448	-51.059931	64.373203	77.150533	21.093438	43.325809	-24.999999	-3.929908	-2.436197	4.569193	-5.270432	-3.980666	-1.375407	51.756961	-49.705417	-26.841337	80.048148	27.535244	-17.019933	-25.000000	
2.2800	1.347135	7.434752	1.093784	-0.190861	1.001207	0.013032	-18.621260	-7.814158	-24.548567	-3.825264	8.278950	2.016483	64.297142	-51.088377	64.338105	77.144359	21.096068	43.325256	-24.999998	-3.946208	-2.475165	4.601904	-5.247122	-4.012255	-1.395159	51.695780	-49.707033	-26.764580	80.002731	27.550386	-17.053414	-25.000000	
2.2900	1.327629	7.439646	1.168505	-0.191042	1.001142	0.013003	-18.658150	-7.826391	-24.609896	-3.837850	8.274158	2.020871	64.286396	-51.099035	64.307637	77.140143	21.101564	43.329216	-24.999997	-3.952282	-2.508475	4.615251	-5.226873	-4.038994	-1.408320	51.646082	-49.698289	-26.699698	79.968337	27.571208	-17.096923	-25.000000	
2.3000	1.308940	7.449865	1.254788	-0.191212	1.001118	0.012980	-18.707859	-7.843386	-24.693703	-3.853722	8.266272	2.028008	64.273387	-51.108724	64.263506	77.128843	21.111568	43.337040	-24.999994	-3.957373	-2.547319	4.629201	-5.205623	-4.075025	-1.424573	51.584194	-49.689556	-26.602819	79.915605	27.605504	-17.168480	-25.000000	
2.3100	1.289990	7.466772	1.337230	-0.191383	1.001109	0.012958	-18.764484	-7.863287	-24.792367	-3.870056	8.251385	2.037781	64.258733	-51.104034	64.207773	77.113242	21.130285	43.354566	-24.999989	-3.949742	-2.588092	4.623680	-5.187074	-4.121486	-1.438390	51.513188	-49.672741	-26.477402	79.852287	27.664581	-17.288412	-25.000000	
2.3200	1.270310	7.492388	1.415859	-0.191565	1.001120	0.012934	-18.829296	-7.886339	-24.909187	-3.886409	8.227296	2.050801	64.241659	-51.080624	64.138390	77.094720	21.159959	43.384753	-24.999981	-3.924787	-2.631283	4.591328	-5.172057	-4.181215	-1.448593	51.430162	-49.644796	-26.318230	79.778709	27.755577	-17.470342	-25.000000	
2.3300	1.251683	7.540894	1.475739	-0.191760	1.001130	0.012918	-18.911985	-7.909878	-25.070737	-3.894896	8.176511	2.069764	64.221215	-51.010932	64.040348	77.073498	21.218211	43.448825	-24.999966	-3.848182	-2.674282	4.478574	-5.171939	-4.274783	-1.445253	51.319123	-49.590998	-26.083854	79.688832	27.932365	-17.815404	-25.000000	
2.3400	1.232879	7.607334	1.521170	-0.191970	1.001140	0.012905	-19.008035	-7.933523	-25.265920	-3.897251	8.105464	2.093179	64.198272	-50.904336	63.920413	77.053143	21.298061	43.539421	-24.999940	-3.730819	-2.716553	4.301881	-5.183499	-4.393482	-1.430816	51.187356	-49.516097	-25.792649	79.589781	28.175777	-18.287845	-25.000000	
2.3500	1.214598	7.687398	1.551179	-0.192176	1.001126	0.012900	-19.111955	-7.954916	-25.483063	-3.892788	8.019577	2.118875	64.174278	-50.771070	63.787361	77.039442	21.392273	43.649453	-24.999892	-3.581903	-2.754727	4.075285	-5.206031	-4.528372	-1.406349	51.043830	-49.426698	-25.465781	79.491999	28.467270	-18.852939	-24.999999	
2.3600	1.193945	7.761460	1.579902	-0.192382	1.001092	0.012889	-19.204897	-7.974843	-25.676515	-3.889856	7.943686	2.141790	64.151596	-50.646795	63.667411	77.041876	21.474282	43.749642	-24.999806	-3.445683	-2.787970	3.866368	-5.226067	-4.646556	-1.382306	50.916902	-49.341435	-25.173726	79.418238	28.730371	-19.367658	-24.999999	
2.3700	1.170667	7.827769	1.608942	-0.192562	1.001034	0.012882	-19.290089	-7.994189	-25.849557	-3.890605	7.881062	2.161288	64.129370	-50.539994	63.559937	77.067934	21.538495	43.836145	-24.999653	-3.330402	-2.815169	3.688592	-5.242675	-4.743697	-1.361051	50.809709	-49.265297	-24.914905	79.372387	28.955533	-19.819738	-24.999998	
2.3800	1.142570	7.871830	1.653331	-0.192721	1.000977	0.012868	-19.357139	-8.016033	-25.974171	-3.903610	7.849747	2.174939	64.108390	-50.478518	63.480326	77.121364	21.564834	43.885903	-24.999379	-3.270766	-2.839533	3.595965	-5.243592	-4.798461	-1.352677	50.738682	-49.211579	-24.733077	79.364846	29.086464	-20.105084	-24.999997	
2.3900	1.111770	7.898044	1.707939	-0.192852	1.000921	0.012853	-19.409850	-8.041700	-26.059473	-3.928310	7.844068	2.184233	64.088143	-50.454282	63.422018	77.201892	21.556174	43.902394	-24.998887	-3.257443	-2.861973	3.574096	-5.231088	-4.818132	-1.354912	50.698373	-49.174830	-24.612057	79.392054	29.137826	-20.253348	-24.999996	
2.4000	1.078544	7.910503	1.767996	-0.192971	1.000868	0.012834	-19.451022	-8.073243	-26.111986	-3.965423	7.860173	2.191029	64.068508	-50.458493	63.377680	77.314503	21.512628	43.887232	-24.998008	-3.281942	-2.884996	3.609574	-5.205592	-4.809020	-1.366194	50.683396	-49.146752	-24.538180	79.456180	29.121151	-20.290123	-24.999992	
2.4100	1.046419	7.926745	1.820396	-0.193074	1.000825	0.012828	-19.498208	-8.114296	-26.172281	-4.011697	7.876464	2.201407	64.048192	-50.460591	63.320562	77.453719	21.447885	43.856048	-24.996428	-3.307097	-2.911756	3.645393	-5.176636	-4.799959	-1.378399	50.670785	-49.108557	-24.446022	79.537667	29.097578	-20.336159	-24.999986	
2.4200	1.016108	7.946986	1.862655	-0.193177	1.000797	0.012823	-19.547245	-8.166216	-26.234061	-4.067646	7.891498	2.216631	64.029141	-50.455647	63.250727	77.614893	21.358692	43.802787	-24.993612	-3.328891	-2.944408	3.674692	-5.143112	-4.792946	-1.390658	50.660980	-49.055567	-24.340833	79.635113	29.066388	-20.388622	-24.999975	
2.4300	0.988949	7.974066	1.874803	-0.193268	1.000787	0.012827	-19.601919	-8.243663	-26.304465	-4.144290	7.897607	2.244165	64.012093	-50.441203	63.155331	77.809496	21.211337	43.693176	-24.988530	-3.342604	-2.990796	3.690107	-5.101116	-4.796163	-1.403924	50.656294	-48.975700	-24.204442	79.751021	29.018397	-20.455353	-24.999956	
2.4400	0.963585	8.007293	1.867460	-0.193357	1.000800	0.012833	-19.661250	-8.341362	-26.381956	-4.237467	7.896889	2.281512	63.997392	-50.416922	63.036783	78.035044	21.014672	43.533083	-24.979531	-3.349242	-3.048315	3.693223	-5.052110	-4.807306	-1.417683	50.655735	-48.872869	-24.043696	79.885185	28.954632	-20.529734	-24.999921	
2.4500	0.939517	8.046336	1.848762	-0.193428	1.000818	0.012846	-19.728472	-8.453009	-26.472566	-4.341983	7.890560	2.325607	63.985675	-50.385594	62.892682	78.300133	20.770901	43.320375	-24.963117	-3.350928	-3.111766	3.688317	-5.000115	-4.824505	-1.431703	50.658538	-48.753659	-23.860714	80.045037	28.872326	-20.603739	-24.999858	
2.4600	0.916822	8.087701	1.848015	-0.193497	1.000848	0.012860	-19.794477	-8.558226	-26.562354	-4.440682	7.884703	2.367085	63.977327	-50.345094	62.740019	78.580972	20.521375	43.085744	-24.934538	-3.349990	-3.170278	3.678560	-4.951411	-4.838420	-1.443018	50.663064	-48.633455	-23.685975	80.220934	28.779277	-20.653503	-24.999746	
2.4700	0.894177	8.132367	1.857735	-0.193550	1.000859	0.012877	-19.863329	-8.656243	-26.661034	-4.531309	7.874175	2.406579	63.971561	-50.293038	62.566241	78.901300	20.246395	42.795672	-24.881049	-3.345353	-3.221970	3.662857	-4.908249	-4.850226	-1.451235	50.669836	-48.509541	-23.511277	80.429396	28.660681	-20.662388	-24.999545	
2.4800	0.870564	8.177966	1.897754	-0.193607	1.000872	0.012895	-19.926931	-8.735168	-26.757350	-4.602701	7.859787	2.439337	63.967391	-50.224266	62.384499	79.236636	19.972189	42.461492	-24.791640	-3.337732	-3.260999	3.641354	-4.873419	-4.853523	-1.454034	50.678967	-48.390437	-23.354471	80.654764	28.517820	-20.605963	-24.999186	
2.4900	0.840239	8.230856	1.940785	-0.193671	1.000860	0.012918	-19.991277	-8.807002	-26.876708	-4.654859	7.809249	2.477776	63.963850	-50.120378	62.158361	79.631137	19.608720	41.930475	-24.613630	-3.313889	-3.291919	3.595028	-4.849161	-4.863420	-1.450404	50.696707	-48.258411	-23.178995	80.920916	28.292602	-20.424257	-24.998542	
2.5000	0.804990	8.288804	1.991870	-0.193766	1.000874	0.012940	-20.049706	-8.876081	-27.005539	-4.692323	7.725144	2.523221	63.962731	-49.976813	61.902628	80.050514	19.175798	41.228909	-24.344628	-3.272593	-3.319533	3.520078	-4.830634	-4.879016	-1.439860	50.722625	-48.110064	-22.993169	81.197327	27.995040	-20.120170	-24.997387	
2.5100	0.767079	8.356984	2.013256	-0.193863	1.000870	0.012972	-20.119590	-8.959200	-27.176013	-4.727228	7.594981	2.584823	63.975927	-49.781033	61.590474	80.551541	18.618773	40.279494	-23.927518	-3.209682	-3.350540	3.411462	-4.815881	-4.910566	-1.424335	50.754026	-47.920378	-22.759031	81.505203	27.584314	-19.658651	-24.995321	
2.5200	0.732557	8.426835	2.031253	-0.193964	1.000885	0.013010	-20.193293	-9.047060	-27.356574	-4.763736	7.455980	2.650105	64.002994	-49.552277	61.260425	81.078200	18.033660	39.252707	-23.406670	-3.138428	-3.381357	3.287308	-4.800885	-4.940929	-1.404509	50.783807	-47.705013	-22.516896	81.809885	27.123451	-19.099804	-24.991617	
2.5300	0.700337	8.498228	2.046051	-0.194054	1.000896	0.013053	-20.273274	-9.136756	-27.548685	-4.801420	7.314207	2.716530	64.038964	-49.298990	60.907947	81.638210	17.420939	38.163278	-22.786410	-3.062491	-3.408963	3.153725	-4.787053	-4.966771	-1.380954	50.810762	-47.467897	-22.266655	82.122875	26.617660	-18.452811	-24.984990	
2.5400	0.668009	8.564903	2.071185	-0.194136	1.000922	0.013098	-20.349299	-9.223270	-27.721318	-4.844510	7.196444	2.776114	64.059382	-49.043583	60.539650	82.189161	16.819240	37.110170	-22.081878	-2.990962	-3.428531	3.021496	-4.771560	-4.970810	-1.352361	50.832751	-47.220670	-22.033760	82.428393	26.107220	-17.749902	-24.973095	
2.5500	0.635107	8.628750	2.101899	-0.194208	1.000948	0.013146	-20.422261	-9.307271	-27.877496	-4.892688	7.100098	2.829957	64.060310	-48.786837	60.148942	82.737464	16.214120	36.077634	-21.299938	-2.923978	-3.441509	2.891210	-4.753771	-4.954663	-1.319482	50.849704	-46.961311	-21.810953	82.734742	25.588406	-16.994717	-24.951855	
2.5600	0.600324	8.689796	2.130916	-0.194273	1.000976	0.013190	-20.488321	-9.390314	-28.009608	-4.947657	7.026668	2.878403	64.020936	-48.531334	59.715142	83.276116	15.572096	35.041082	-20.427193	-2.861103	-3.449075	2.761162	-4.731877	-4.916572	-1.281865	50.858711	-46.684954	-21.592073	83.042870	25.052592	-16.171766	-24.913618	
